# xmcd
# 
# Track frame offsets:
#     150
#     14009
#     29358
#     47487
#     64363
#     81616
#     97134
#     115236
#     130698
#     146409
#     161950
#     174138
#     188975
#     202737
#     217675
#     232132
#     248776
#     265105
#     282214
#     297012
# 
# Disc length: 4252
# 
# Revision: 3
# Processed by: cddbd v1.5.2PL0 Copyright (c) Steve Scherf et al.
# Submitted via: BonkEnc v1.0.15
# 
DISCID=25109a14
DTITLE=Various Artist - Kontor House Of House Volume 12 - CD1
DYEAR=2011
DGENRE=Club-House
TTITLE0=Martin Solveig feat. Kele - Ready 2 Go
TTITLE1=R.I.O. - Miss Sunshine
TTITLE2=Chris Brown - Yeah 3X
TTITLE3=Tiko's Groove feat. Gosha - I Don't Know What To Do
TTITLE4=Britney Spears - Hold It Against Me
TTITLE5=Armin van Buuren feat. Laura V - Drowning (Avicii Remix)
TTITLE6=ATB feat. JanSoon - Gold
TTITLE7=Medina - Gutter
TTITLE8=Avicii - Street Dancer
TTITLE9=Jean Elan feat. Cosmo Klein - Feel Alive
TTITLE10=Lexy and K-Paul - Gonna Fly Now
TTITLE11=Plastik Funk - Everybody Dance Now! 2011
TTITLE12=Quick-Jaxx - Hey Bill (Bang Bang)
TTITLE13=Alex Kenji and Federico Scavo - Get Funky
TTITLE14=Houseshaker and DJ Nico feat. Alexander - So In Love
TTITLE15=Akcent - Love Stoned (OtherView Mix)
TTITLE16=E-Type - Back 2 Life
TTITLE17=Gabry Ponte feat. Maya Days - Sexy DJ (In Da Club)
TTITLE18=DJ Antoine vs. Timati feat. Kalenna - Welcome To St. Tropez (DJ Antoine vs. Mad Mark Remix)
TTITLE19=Culcha Candela - Berlin City Girl ('WIR' Club Mix)
EXTD=YEAR: 2011
EXTT0=
EXTT1=
EXTT2=
EXTT3=
EXTT4=
EXTT5=
EXTT6=
EXTT7=
EXTT8=
EXTT9=
EXTT10=
EXTT11=
EXTT12=
EXTT13=
EXTT14=
EXTT15=
EXTT16=
EXTT17=
EXTT18=
EXTT19=
PLAYORDER=
